# xmcd
#
# Track frame offsets:
#	150
#	12912
#	25580
#	44280
#	56744
#	76435
#	89818
#	107540
#	120235
#	134082
#	147805
#	164684
#	191773
#
# Disc length: 3123 seconds
# Revision: 1
# Processed by: cddbd v1.5.2PL0 Copyright (c) Steve Scherf et al.
# Submitted via: dBpowerAMP V12.0
#
DISCID=b10c310d
DTITLE=June Carter Cash - Ring of Fire, The Best of June Carter Cash
DYEAR=2003
DGENRE=Country
TTITLE0=Ring of Fire
TTITLE1=Keep of the Sunnyside
TTITLE2=Will the Circle Be Unbroken
TTITLE3=Far Side Banks of Jordan
TTITLE4=Wildwood Flower
TTITLE5=Hold Fast to the Right
TTITLE6=Will You Miss Me When I'm Gone?
TTITLE7=Jackson
TTITLE8=If I We're a Carpenter
TTITLE9=Don't Forget This Song
TTITLE10=Cuban Soldier
TTITLE11=The Heel
TTITLE12=DATA
EXTD=
EXTT0=
EXTT1=
EXTT2=
EXTT3=
EXTT4=
EXTT5=
EXTT6=
EXTT7=
EXTT8=
EXTT9=
EXTT10=
EXTT11=
EXTT12=
PLAYORDER=
